<?xml version="1.0" encoding="utf-8"?>
<!-- Generator: Adobe Illustrator 15.0.0, SVG Export Plug-In . SVG Version: 6.00 Build 0)  -->
<!DOCTYPE svg PUBLIC "-//W3C//DTD SVG 1.1//EN" "http://www.w3.org/Graphics/SVG/1.1/DTD/svg11.dtd">
<svg version="1.1" id="Layer_1" xmlns="http://www.w3.org/2000/svg" xmlns:xlink="http://www.w3.org/1999/xlink" x="0px" y="0px"
	 width="400.871px" height="93.282px" viewBox="0 0 400.871 93.282" enable-background="new 0 0 400.871 93.282"
	 xml:space="preserve">
<path fill="#E94E1B" d="M12.593,5h17.506c3.724,0,6.753,3.028,6.753,6.753c0,5.929,4.824,10.753,10.753,10.753
	s10.753-4.824,10.753-10.753C58.358,8.029,61.387,5,65.111,5h17.506c3.42,0,6.247,2.558,6.687,5.858
	c1.127-0.891,2.295-1.729,3.504-2.513C91.378,4.083,87.354,1,82.617,1H65.111c-5.929,0-10.753,4.824-10.753,10.753
	c0,3.724-3.029,6.753-6.753,6.753s-6.753-3.029-6.753-6.753C40.852,5.824,36.028,1,30.099,1H12.593C6.664,1,1.84,5.824,1.84,11.753
	v70.022c0,5.93,4.824,10.753,10.753,10.753h17.506c5.929,0,10.753-4.823,10.753-10.753c0-3.724,3.029-6.753,6.753-6.753
	s6.753,3.029,6.753,6.753c0,5.93,4.824,10.753,10.753,10.753h17.506c4.738,0,8.761-3.084,10.19-7.346
	c-1.208-0.784-2.377-1.623-3.504-2.514c-0.439,3.302-3.267,5.858-6.687,5.858H65.111c-3.724,0-6.753-3.028-6.753-6.753
	c0-5.929-4.824-10.753-10.753-10.753s-10.753,4.824-10.753,10.753c0,3.725-3.029,6.753-6.753,6.753H12.593
	c-3.724,0-6.753-3.028-6.753-6.753V11.753C5.84,8.029,8.87,5,12.593,5z"/>
<path fill="#E94E1B" d="M89.37,16.045c1.263-1.163,2.601-2.244,4-3.246c6.844-4.902,15.217-7.8,24.259-7.8
	c13.127,0,24.852,6.093,32.514,15.593c0.786-1.123,1.617-2.21,2.498-3.256C144.238,7.357,131.665,1,117.628,1
	c-9.145,0-17.665,2.707-24.821,7.346c-1.208,0.784-2.377,1.622-3.504,2.513c-10.611,8.39-17.439,21.361-17.439,35.906
	s6.829,27.518,17.439,35.905c1.127,0.891,2.295,1.729,3.504,2.514c7.156,4.64,15.676,7.346,24.821,7.346
	c14.036,0,26.61-6.356,35.012-16.337c-0.88-1.046-1.712-2.134-2.498-3.256c-7.662,9.5-19.387,15.593-32.514,15.593
	c-9.042,0-17.415-2.896-24.259-7.8c-1.399-1.002-2.737-2.083-4-3.245c-8.296-7.639-13.506-18.581-13.506-30.72
	S81.073,23.683,89.37,16.045z"/>
<path fill="#E94E1B" d="M155.138,20.593C162.8,11.093,174.525,5,187.652,5c9.042,0,17.415,2.896,24.26,7.8v-1.047
	c0-1.161,0.25-2.272,0.709-3.312C205.434,3.743,196.86,1,187.652,1c-14.036,0-26.61,6.356-35.012,16.337
	c-0.881,1.046-1.712,2.133-2.498,3.256c-5.195,7.423-8.255,16.444-8.255,26.172c0,9.729,3.06,18.749,8.255,26.172
	c0.786,1.122,1.618,2.21,2.498,3.256c8.402,9.979,20.976,16.337,35.012,16.337c9.208,0,17.782-2.742,24.969-7.44
	c-0.459-1.039-0.709-2.15-0.709-3.312V80.73c-6.845,4.902-15.218,7.8-24.26,7.8c-13.127,0-24.852-6.093-32.514-15.593
	c-0.89-1.104-1.722-2.253-2.498-3.443c-4.264-6.546-6.753-14.35-6.753-22.729s2.489-16.182,6.753-22.728
	C153.416,22.846,154.249,21.696,155.138,20.593z"/>
<path fill="#E94E1B" d="M215.912,16.045v-4.292c0-0.292,0.043-0.579,0.105-0.862C216.742,7.62,221.489,5,227.041,5h30.635
	c9.043,0,17.416,2.896,24.26,7.8v-1.047c0-1.17,0.232-2.294,0.65-3.351C275.412,3.729,266.858,1,257.675,1h-30.635
	c-6.852,0-12.498,3.081-14.42,7.44c-0.459,1.04-0.711,2.151-0.711,3.312V12.8v67.93v1.047c0,1.161,0.252,2.272,0.711,3.312
	c1.922,4.36,7.568,7.44,14.42,7.44h30.635c9.183,0,17.736-2.729,24.91-7.402c-0.418-1.057-0.651-2.18-0.651-3.351V80.73
	c-6.845,4.902-15.218,7.8-24.259,7.8h-30.635c-5.553,0-10.301-2.62-11.023-5.891c-0.062-0.283-0.105-0.57-0.105-0.862v-4.292V16.045
	z"/>
<path fill="#E94E1B" d="M285.934,16.045v-4.292c0-0.299,0.034-0.591,0.085-0.879c0.572-3.31,4.32-5.874,8.855-5.874h21.883
	c4.535,0,8.283,2.564,8.855,5.874c1.105-0.875,2.25-1.699,3.434-2.471C327.348,4.111,322.486,1,316.757,1h-21.883
	c-5.728,0-10.59,3.11-12.289,7.402c-0.418,1.057-0.651,2.181-0.651,3.351V12.8v67.93v1.047c0,1.171,0.233,2.294,0.651,3.351
	c1.699,4.292,6.562,7.402,12.289,7.402h21.883c5.729,0,10.591-3.11,12.289-7.402c-1.184-0.771-2.328-1.596-3.434-2.471
	c-0.572,3.309-4.32,5.873-8.855,5.873h-21.883c-4.535,0-8.283-2.564-8.855-5.873c-0.05-0.288-0.085-0.58-0.085-0.88v-4.292V16.045
	L285.934,16.045z"/>
<path fill="#E94E1B" d="M388.968,1h-35.012c-9.183,0-17.734,2.729-24.91,7.402c-1.184,0.771-2.328,1.597-3.434,2.471
	c-10.6,8.389-17.421,21.354-17.421,35.891c0,14.536,6.821,27.502,17.421,35.892c1.105,0.875,2.25,1.698,3.434,2.471
	c7.176,4.675,15.729,7.402,24.91,7.402h35.012c5.93,0,10.754-4.823,10.754-10.753V68.647c0-3.587-1.766-6.769-4.473-8.723
	c2.726-1.932,4.473-5.116,4.473-8.783v-8.753c0-3.786-1.928-6.84-4.57-8.713c2.764-1.948,4.57-5.163,4.57-8.793v-13.13
	C399.722,5.824,394.898,1,388.968,1z M395.722,24.883c0,3.724-3.029,6.753-6.754,6.753v4c3.195,0,6.754,2.773,6.754,6.753v8.753
	c0,3.787-2.967,6.753-6.754,6.753v4c3.725,0,6.754,3.029,6.754,6.753v13.129c0,3.725-3.029,6.753-6.754,6.753h-35.012
	c-9.041,0-17.414-2.896-24.258-7.8c-1.398-1.002-2.738-2.083-4-3.245c-8.297-7.639-13.507-18.581-13.507-30.72
	s5.21-23.082,13.507-30.719c1.262-1.163,2.602-2.244,4-3.246c6.844-4.902,15.217-7.8,24.258-7.8h35.012
	c3.725,0,6.754,3.028,6.754,6.753V24.883z"/>
</svg>
